<svg width="80" height="80" viewBox="0 0 80 80" fill="none" xmlns="http://www.w3.org/2000/svg">
<path d="M28.8799 34.4C28.9599 39.24 32.6399 43.24 37.2399 44.4C41.5599 45.48 46.3599 43.96 48.4399 39.84C49.7999 37.2 49.9599 34.24 50.1199 31.36C50.1599 30.72 49.1599 30.72 49.1199 31.36C48.8799 35.68 48.3999 40.8 43.9599 42.88C40.3199 44.6 35.7199 43.6 32.7999 40.88C30.9999 39.2 29.8799 36.84 29.8799 34.36C29.8799 33.76 28.8799 33.76 28.8799 34.4Z" fill="black"/>
<path d="M49.5606 36.64C51.0006 36.36 52.1206 35.16 52.4806 33.76C52.6406 33.04 52.6806 32.2 52.1606 31.6C51.6006 31 50.8006 30.88 50.0406 30.84C49.7606 30.8 49.5206 31.08 49.5206 31.36C49.5206 31.64 49.7606 31.84 50.0406 31.88C50.5206 31.92 51.1206 31.96 51.4806 32.36C51.7606 32.72 51.6406 33.36 51.4806 33.76C51.1606 34.76 50.3606 35.52 49.3206 35.72C49.0406 35.76 48.9206 36.08 48.9606 36.32C49.0406 36.56 49.3206 36.68 49.5606 36.64Z" fill="black"/>
<path d="M43.0402 20.96C42.7202 25.32 45.1202 29.52 49.0002 31.48C49.5602 31.76 50.0802 30.92 49.5202 30.6C45.9202 28.76 43.7602 24.96 44.0402 20.92C44.0802 20.32 43.0802 20.32 43.0402 20.96Z" fill="black"/>
<path d="M30.6398 31.88C30.5998 31.96 30.7198 31.76 30.6398 31.88C30.6398 31.88 30.6398 31.92 30.5998 31.92C30.5598 31.96 30.5198 32 30.4798 32.04C30.3998 32.12 30.3198 32.2 30.2398 32.32C30.0398 32.52 29.8798 32.72 29.6798 32.88C29.3198 33.24 28.9598 33.64 28.7198 34.08C28.5998 34.32 28.6398 34.64 28.8798 34.76C29.1198 34.88 29.4398 34.84 29.5598 34.6C29.5998 34.52 29.6798 34.44 29.7198 34.32C29.7198 34.28 29.7598 34.28 29.7598 34.24C29.7998 34.16 29.7998 34.2 29.7598 34.24C29.7998 34.2 29.8398 34.16 29.8798 34.08C30.0398 33.88 30.2398 33.68 30.3998 33.48C30.7598 33.12 31.1198 32.76 31.4398 32.32C31.5198 32.24 31.5198 32.04 31.4798 31.92C31.4398 31.8 31.3598 31.68 31.2398 31.64C31.0798 31.56 30.7998 31.64 30.6398 31.88Z" fill="black"/>
<path d="M42.7202 21.04C42.6402 21.72 42.0002 22.24 41.5602 22.68C41.2002 23.04 40.8002 23.36 40.4002 23.68C39.4802 24.44 38.5202 25.16 37.5602 25.88C36.2802 26.84 34.9602 27.72 33.6802 28.68C33.1602 29.04 33.6802 29.92 34.2002 29.56C36.7202 27.68 39.3202 25.92 41.7202 23.92C42.6002 23.16 43.6002 22.36 43.7202 21.12C43.7602 20.4 42.7602 20.4 42.7202 21.04Z" fill="black"/>
<path d="M45.76 17.56C42.68 16.76 39.48 16.16 36.28 16.68C33.4 17.12 30.84 18.56 29.04 20.84C27.2 23.12 26.2 25.92 25.68 28.8C25.04 32.04 24.84 35.36 24.68 38.64C24.48 42.52 24.52 46.36 24.64 50.24C24.68 50.88 25.68 50.88 25.64 50.24C25.4 43.8 25.44 37.28 26.32 30.92C26.72 28.04 27.4 25.16 28.96 22.68C30.44 20.32 32.56 18.64 35.28 17.92C38.64 17.04 42.16 17.68 45.48 18.52C46.12 18.68 46.4 17.72 45.76 17.56Z" fill="black"/>
<path d="M45.6399 18.72C47.8399 18.68 49.4799 20.4 50.3999 22.24C51.3999 24.28 51.9599 26.6 52.3999 28.8C52.8399 31.08 53.0399 33.4 52.8399 35.68C52.6399 37.88 51.6799 39.88 51.4399 42.08C51.1599 44.56 51.3599 47.08 51.6399 49.52C51.7199 50.16 52.7199 50.16 52.6399 49.52C52.3999 47.2 52.1599 44.84 52.3999 42.48C52.5199 41.4 52.7599 40.36 53.1199 39.32C53.5199 38.16 53.7198 36.92 53.8798 35.68C54.1198 33.28 53.8799 30.88 53.3999 28.52C52.9599 26.2 52.3599 23.76 51.2799 21.64C50.1999 19.52 48.1999 17.68 45.6799 17.72C44.9999 17.72 44.9599 18.72 45.6399 18.72Z" fill="black"/>
<path d="M36.0001 43.64C36.0801 45 35.7601 46.36 35.0801 47.56C34.7601 48.12 35.6001 48.6 35.9601 48.08C36.7601 46.76 37.1201 45.2 37.0401 43.64C37.0401 43.36 36.8401 43.12 36.5201 43.12C36.2401 43.16 35.9601 43.4 36.0001 43.64Z" fill="black"/>
<path d="M34.8002 48.32C35.5202 50.72 36.5202 53.6 38.6802 55.04C39.6802 55.72 40.9602 55.88 42.0402 55.44C43.1602 54.96 43.9202 53.96 44.4802 52.88C45.2002 51.52 45.6402 50.08 46.1202 48.64C46.3202 48.04 45.3602 47.76 45.1602 48.36C44.8002 49.44 44.4402 50.56 43.9602 51.64C43.5202 52.6 43.0002 53.68 42.0802 54.28C40.0002 55.68 38.1202 53.48 37.2002 51.8C36.5602 50.6 36.1202 49.36 35.7202 48.08C35.6002 47.44 34.6402 47.72 34.8002 48.32Z" fill="black"/>
<path d="M43.3605 43.92C43.3205 44.96 43.5205 46 43.9605 46.96C44.2805 47.64 44.8005 48.36 45.5205 48.68C45.7605 48.8 46.0405 48.76 46.2005 48.52C46.3205 48.32 46.2805 47.96 46.0405 47.84C45.9205 47.76 45.7605 47.72 45.6405 47.6C45.7205 47.64 45.5605 47.52 45.5205 47.52C45.4405 47.48 45.4005 47.4 45.3605 47.32C45.1605 47.08 44.9605 46.76 44.8005 46.44C44.4405 45.68 44.3205 44.76 44.3205 43.92C44.3605 43.28 43.3605 43.28 43.3605 43.92Z" fill="black"/>
<path d="M35.2403 47.52C33.5603 47.88 31.8803 48.28 30.2003 48.64C28.7203 48.96 27.1603 49.24 25.7203 49.72C24.4403 50.16 23.3603 50.92 22.6403 52.08C21.9603 53.16 21.6403 54.44 21.3603 55.68C21.1203 56.8 20.4003 58.24 21.3203 59.24C21.7603 59.68 22.4003 59.88 22.9203 60.24C23.5203 60.64 24.1203 61.04 24.7603 61.4C27.4003 62.8 30.3203 63.52 33.2403 63.8C36.0003 64.04 38.7603 63.96 41.5203 63.76C44.2403 63.56 47.0003 63.28 49.6803 62.92C51.0003 62.72 52.2803 62.52 53.6003 62.32C54.7603 62.12 56.0003 61.92 57.1203 61.56C58.4003 61.16 59.2403 60.28 59.0003 58.88C58.7603 57.44 58.3603 55.96 57.8803 54.6C57.4803 53.44 56.9603 52.12 56.0803 51.24C55.4403 50.6 54.6003 50.2 53.7603 49.88C51.7203 49.04 49.4803 48.56 47.3203 48.2C46.8803 48.12 46.4003 48.04 45.9603 48C45.3203 47.92 45.0403 48.88 45.6803 48.96C47.6403 49.24 49.6003 49.6 51.5203 50.16C53.2003 50.64 55.0403 51.2 55.9603 52.76C56.6803 53.96 57.1203 55.28 57.4803 56.6C57.6403 57.2 57.8003 57.84 57.9203 58.44C58.0803 59.16 58.2403 59.88 57.5203 60.32C56.6803 60.84 55.4803 60.96 54.5203 61.12C53.3203 61.36 52.1603 61.56 50.9603 61.72C46.0803 62.48 41.0403 63 36.0803 62.92C33.3603 62.88 30.6003 62.56 28.0403 61.72C26.7203 61.28 25.4403 60.72 24.3203 59.96C23.8003 59.64 23.3203 59.24 22.8003 59C22.2003 58.72 21.8003 58.44 22.0003 57.72C22.6403 55.16 22.9203 52.08 25.6403 50.88C27.1203 50.24 28.8003 50 30.3603 49.68C32.0803 49.28 33.8403 48.88 35.5603 48.52C36.1603 48.32 35.8803 47.36 35.2403 47.52Z" fill="black"/>
<path d="M36.9607 32.2C36.9607 33.32 36.2807 34.32 35.2007 34.72C34.1207 35.12 32.9207 34.76 32.2007 33.88C31.5207 33.04 31.4407 31.8 32.0007 30.84C32.5607 29.92 33.6807 29.4 34.7607 29.6C36.0407 29.84 36.9207 30.92 36.9607 32.2C36.9607 32.84 37.9607 32.84 37.9607 32.2C37.9207 30.68 37.0007 29.32 35.5607 28.76C34.1207 28.2 32.4407 28.68 31.4807 29.84C30.5207 31.04 30.3607 32.72 31.1607 34.08C31.9607 35.4 33.4807 36.08 35.0007 35.8C36.7207 35.48 37.9607 33.92 37.9607 32.2C37.9607 31.56 36.9607 31.56 36.9607 32.2Z" fill="black"/>
<path d="M46.76 32.48C46.76 33.64 46.04 34.68 44.96 35.08C43.84 35.48 42.6 35.12 41.84 34.2C41.12 33.32 41.04 32.04 41.64 31.04C42.24 30.08 43.4 29.52 44.52 29.72C45.8 30 46.72 31.12 46.76 32.48C46.76 33.12 47.76 33.12 47.76 32.48C47.72 30.92 46.76 29.52 45.28 28.96C43.8 28.4 42.08 28.88 41.08 30.08C40.08 31.32 39.92 33.04 40.72 34.4C41.52 35.76 43.12 36.44 44.68 36.16C46.44 35.84 47.72 34.24 47.72 32.48C47.76 31.84 46.76 31.84 46.76 32.48Z" fill="black"/>
<path d="M37.9205 32.8C38.0005 32.76 37.8005 32.84 37.8805 32.84C37.8805 32.8 37.8805 32.8 37.9205 32.8C37.9605 32.8 38.0005 32.76 38.0405 32.76C38.0805 32.76 38.1205 32.72 38.2005 32.72C38.2405 32.72 38.2405 32.72 38.2805 32.72C38.3205 32.72 38.4005 32.72 38.2805 32.72C38.4005 32.72 38.5205 32.68 38.6405 32.68C38.7605 32.68 38.9205 32.68 39.0405 32.68C39.3205 32.68 39.5605 32.68 39.8405 32.72C39.8805 32.72 39.8805 32.72 39.9205 32.72C39.9605 32.72 39.8005 32.68 39.9205 32.72C39.9605 32.72 40.0005 32.72 40.0805 32.76C40.1205 32.76 40.1605 32.8 40.2405 32.8C40.2805 32.8 40.4405 32.88 40.2405 32.8C40.4805 32.92 40.8005 32.88 40.9205 32.64C41.0405 32.44 41.0005 32.08 40.7605 31.96C40.2405 31.72 39.6405 31.72 39.1205 31.72C38.5605 31.72 37.9605 31.76 37.4805 32C37.2405 32.12 37.1605 32.48 37.3205 32.68C37.3605 32.88 37.6405 32.92 37.9205 32.8Z" fill="black"/>
<path d="M47.9603 32.68C48.6803 32.4 49.4403 32.2 50.2003 32.04C50.4403 32 50.6403 31.68 50.5603 31.44C50.4803 31.16 50.2403 31.04 49.9603 31.08C49.2003 31.2 48.4403 31.44 47.7203 31.72C47.6003 31.76 47.4803 31.84 47.4403 31.96C47.3603 32.08 47.3603 32.24 47.4003 32.36C47.4003 32.56 47.6803 32.8 47.9603 32.68Z" fill="black"/>
</svg>
